{"asset":{"generator":"3D Builder","version":"2.0"},"scene":0,"scenes":[{"nodes":[0]}],"nodes":[{"children":[1,2,3,4,5]},{"mesh":0,"matrix":[1,0,0,0,0,-1.1920928955078125E-7,-0.99999988079071045,0,0,0.99999988079071045,-1.1920928955078125E-7,0,0,6.32368823971774E-8,-5.3291313406589325E-7,1]},{"mesh":1,"matrix":[1,0,0,0,0,-1.1920928955078125E-7,-0.99999988079071045,0,0,0.99999988079071045,-1.1920928955078125E-7,0,0,6.32368823971774E-8,-5.3291313406589325E-7,1]},{"mesh":2,"matrix":[1,0,0,0,0,-1.1920928955078125E-7,-0.99999988079071045,0,0,0.99999988079071045,-1.1920928955078125E-7,0,0,6.32368823971774E-8,-5.3291313406589325E-7,1]},{"mesh":3,"matrix":[1,0,0,0,0,-1.1920928955078125E-7,-0.99999988079071045,0,0,0.99999988079071045,-1.1920928955078125E-7,0,0,6.32368823971774E-8,-5.3291313406589325E-7,1]},{"mesh":4,"matrix":[1,0,0,0,0,-1.1920928955078125E-7,-0.99999988079071045,0,0,0.99999988079071045,-1.1920928955078125E-7,0,0,6.32368823971774E-8,-5.3291313406589325E-7,1]}],"meshes":[{"primitives":[{"attributes":{"POSITION":0,"TEXCOORD_0":1},"mode":4,"indices":2,"material":0}]},{"primitives":[{"attributes":{"POSITION":3,"TEXCOORD_0":4},"mode":4,"indices":5,"material":0}]},{"primitives":[{"attributes":{"POSITION":6,"TEXCOORD_0":7},"mode":4,"indices":8,"material":0}]},{"primitives":[{"attributes":{"POSITION":9,"TEXCOORD_0":10},"mode":4,"indices":11,"material":0}]},{"primitives":[{"attributes":{"POSITION":12,"TEXCOORD_0":13},"mode":4,"indices":14,"material":0}]}],"materials":[{"pbrMetallicRoughness":{"baseColorFactor":[1,1,1,1],"metallicFactor":1,"roughnessFactor":1,"baseColorTexture":{"index":0,"texCoord":0},"metallicRoughnessTexture":{"index":1,"texCoord":0}},"alphaMode":"OPAQUE"}],"textures":[{"source":0,"sampler":0},{"source":1,"sampler":0}],"images":[{"uri":"texture_1.png"},{"uri":"texture_0_10852638490067281019.png"}],"samplers":[{"magFilter":9729,"wrapS":10497,"wrapT":10497}],"accessors":[{"bufferView":0,"byteOffset":0,"count":76,"componentType":5126,"type":"VEC3","min":[1.109133243560791,-0.59693610668182373,-6.3236939240596257E-8],"max":[2.3030037879943848,0.5969352126121521,7.53076696395874]},{"bufferView":1,"byteOffset":0,"count":76,"componentType":5126,"type":"VEC2"},{"bufferView":2,"byteOffset":0,"count":324,"componentType":5125,"type":"SCALAR"},{"bufferView":3,"byteOffset":0,"count":76,"componentType":5126,"type":"VEC3","min":[2.7931642532348633,-0.59693628549575806,-6.3236939240596257E-8],"max":[3.98703670501709,0.5969352126121521,9.0022649765014648]},{"bufferView":4,"byteOffset":0,"count":76,"componentType":5126,"type":"VEC2"},{"bufferView":5,"byteOffset":0,"count":324,"componentType":5125,"type":"SCALAR"},{"bufferView":6,"byteOffset":0,"count":76,"componentType":5126,"type":"VEC3","min":[-0.6189730167388916,-0.5969359278678894,-6.3236939240596257E-8],"max":[0.57489776611328125,0.5969352126121521,6.0204243659973145]},{"bufferView":7,"byteOffset":0,"count":76,"componentType":5126,"type":"VEC2"},{"bufferView":8,"byteOffset":0,"count":324,"componentType":5125,"type":"SCALAR"},{"bufferView":9,"byteOffset":0,"count":76,"componentType":5126,"type":"VEC3","min":[-2.3030047416687012,-0.59693586826324463,-6.3236953451450972E-8],"max":[-1.1091337203979492,0.5969352126121521,4.5014166831970215]},{"bufferView":10,"byteOffset":0,"count":76,"componentType":5126,"type":"VEC2"},{"bufferView":11,"byteOffset":0,"count":324,"componentType":5125,"type":"SCALAR"},{"bufferView":12,"byteOffset":0,"count":76,"componentType":5126,"type":"VEC3","min":[-3.98703670501709,-0.5969356894493103,-6.3236953451450972E-8],"max":[-2.7931654453277588,0.59693509340286255,2.9969964027404785]},{"bufferView":13,"byteOffset":0,"count":76,"componentType":5126,"type":"VEC2"},{"bufferView":14,"byteOffset":0,"count":324,"componentType":5125,"type":"SCALAR"}],"bufferViews":[{"buffer":0,"byteOffset":0,"byteLength":912,"byteStride":12,"target":34962},{"buffer":0,"byteOffset":912,"byteLength":608,"byteStride":8,"target":34962},{"buffer":0,"byteOffset":1520,"byteLength":1296,"target":34963},{"buffer":0,"byteOffset":2816,"byteLength":912,"byteStride":12,"target":34962},{"buffer":0,"byteOffset":3728,"byteLength":608,"byteStride":8,"target":34962},{"buffer":0,"byteOffset":4336,"byteLength":1296,"target":34963},{"buffer":0,"byteOffset":5632,"byteLength":912,"byteStride":12,"target":34962},{"buffer":0,"byteOffset":6544,"byteLength":608,"byteStride":8,"target":34962},{"buffer":0,"byteOffset":7152,"byteLength":1296,"target":34963},{"buffer":0,"byteOffset":8448,"byteLength":912,"byteStride":12,"target":34962},{"buffer":0,"byteOffset":9360,"byteLength":608,"byteStride":8,"target":34962},{"buffer":0,"byteOffset":9968,"byteLength":1296,"target":34963},{"buffer":0,"byteOffset":11264,"byteLength":912,"byteStride":12,"target":34962},{"buffer":0,"byteOffset":12176,"byteLength":608,"byteStride":8,"target":34962},{"buffer":0,"byteOffset":12784,"byteLength":1296,"target":34963}],"buffers":[{"byteLength":14080,"uri":"Graph Growth.bin"}]}